<svg xmlns="http://www.w3.org/2000/svg" viewBox="0 0 580.397 532.249"><circle cx="326.951" cy="108.305" r="38.975" fill="#010101"/><path d="M47.483,409.876c-.136-.3-.26-.594-.384-.891l.384-.173H59.336s37.12-81.749,225.6-99.332C387.67,299.9,466.648,249.347,517.242,205.323c42.242-36.748,64.712-68.943,64.712-68.943s-6.545,62.422-24.623,126.664v.037a474.567,474.567,0,0,1-19.958,57.708,271.788,271.788,0,0,1-7.745,45.608c-.05.136-.074.272-.112.408C500.378,478.3,402.073,562.128,281.67,562.128,177.191,562.128,87.324,499.569,47.483,409.876Z" transform="translate(-15.545 -39.879)" fill="#010101"/><path d="M529.516,366.805C500.378,478.3,402.073,562.128,281.67,562.128c-104.479,0-194.346-62.559-234.187-152.252-.136-.3-.26-.594-.384-.891A255.025,255.025,0,0,1,25.545,306c0-141.45,114.675-256.124,256.125-256.124,105.7,0,196.461,64.043,235.572,155.444,42.242-36.748,64.712-68.943,64.712-68.943s-6.545,62.422-24.623,126.664" transform="translate(-15.545 -39.879)" fill="none" stroke="#010101" stroke-miterlimit="10" stroke-width="20"/><path d="M557.331,263.081a474.567,474.567,0,0,1-19.958,57.708,271.788,271.788,0,0,1-7.745,45.608" transform="translate(-15.545 -39.879)" fill="none" stroke="#010101" stroke-miterlimit="10" stroke-width="20"/><path d="M47.483,408.812H59.336s37.12-81.749,225.6-99.332C387.67,299.9,466.648,249.347,517.242,205.323" transform="translate(-15.545 -39.879)" fill="none" stroke="#010101" stroke-miterlimit="10" stroke-width="20"/><circle cx="326.951" cy="108.305" r="38.975" fill="none" stroke="#010101" stroke-miterlimit="10" stroke-width="20"/><path d="M529.5,366.818l.012-.013c.038-.136.062-.272.112-.408,1.893-6.335,24.721-82.814,27.7-103.316v-.037a24.829,24.829,0,0,0,.322-3.415" transform="translate(-15.545 -39.879)" fill="none" stroke="#010101" stroke-linecap="round" stroke-linejoin="round" stroke-width="20"/></svg>